<?xml version="1.0" encoding="utf-8"?>
<!-- Generator: Adobe Illustrator 18.1.1, SVG Export Plug-In . SVG Version: 6.00 Build 0)  -->
<svg version="1.1" id="Layer_1" xmlns="http://www.w3.org/2000/svg" xmlns:xlink="http://www.w3.org/1999/xlink" x="0px" y="0px"
	 viewBox="0 0 688.1 682.5" enable-background="new 0 0 688.1 682.5" xml:space="preserve">
<circle stroke="#000000" stroke-width="1.1694" stroke-miterlimit="10" cx="345.2" cy="341.3" r="336.9"/>
<g>
	<path fill="#FFFFFF" d="M158.5,338.6h-31.4v29.2h35v8.8h-45.5v-80.9h43.7v8.8h-33.2V330h31.4V338.6z"/>
	<path fill="#FFFFFF" d="M220,376.5l-10.3-17.9c-4.2-6.8-6.8-11.3-9.4-16H200c-2.3,4.7-4.6,9-8.8,16.1l-9.7,17.8h-12l24.7-40.9
		l-23.8-40h12.1l10.7,19c3,5.3,5.3,9.4,7.4,13.7h0.4c2.3-4.8,4.3-8.5,7.3-13.7l11-19h12L206.9,335l25.2,41.5H220z"/>
	<path fill="#FFFFFF" d="M256.2,351.1l-8.4,25.4H237l27.5-80.9h12.6l27.6,80.9h-11.2l-8.6-25.4H256.2z M282.7,342.9l-7.9-23.3
		c-1.8-5.3-3-10.1-4.2-14.8h-0.2c-1.2,4.8-2.5,9.7-4.1,14.6l-7.9,23.4H282.7z"/>
	<path fill="#FFFFFF" d="M384.2,341c-0.6-11.3-1.3-24.8-1.2-34.9h-0.4c-2.8,9.5-6.1,19.6-10.2,30.7l-14.3,39.2h-7.9l-13.1-38.5
		c-3.8-11.4-7.1-21.8-9.4-31.4h-0.2c-0.2,10.1-0.8,23.6-1.6,35.8l-2.2,34.7h-10l5.6-80.9h13.3l13.8,39.1c3.4,10,6.1,18.8,8.2,27.2
		h0.4c2-8.2,4.9-17,8.5-27.2l14.4-39.1h13.3l5,80.9h-10.2L384.2,341z"/>
	<path fill="#FFFFFF" d="M412.6,296.6c5-0.8,11.6-1.6,20-1.6c10.3,0,17.9,2.4,22.7,6.7c4.4,3.8,7.1,9.7,7.1,16.9
		c0,7.3-2.2,13.1-6.2,17.3c-5.5,5.9-14.5,8.9-24.7,8.9c-3.1,0-6-0.1-8.4-0.7v32.4h-10.4V296.6z M423,335.6c2.3,0.6,5.2,0.8,8.6,0.8
		c12.6,0,20.3-6.1,20.3-17.3c0-10.7-7.6-15.8-19.1-15.8c-4.6,0-8,0.4-9.8,0.8V335.6z"/>
	<path fill="#FFFFFF" d="M476.4,295.7h10.4v72.1h34.6v8.8h-45V295.7z"/>
	<path fill="#FFFFFF" d="M574.9,338.6h-31.4v29.2h35v8.8H533v-80.9h43.7v8.8h-33.2V330h31.4V338.6z"/>
</g>
<g>
</g>
<g>
</g>
<g>
</g>
<g>
</g>
<g>
</g>
<g>
</g>
<g>
</g>
<g>
</g>
<g>
</g>
<g>
</g>
<g>
</g>
<g>
</g>
<g>
</g>
<g>
</g>
<g>
</g>
</svg>
